<svg version="1" xmlns="http://www.w3.org/2000/svg" width="682.667" height="682.667" viewBox="0 0 512.000000 512.000000"><path d="M236 27.9c-5.8 3.7-21.3 13.7-34.5 22.1-13.2 8.4-30.1 19.2-37.5 24-7.4 4.7-16.4 10.5-20 12.8-8.9 5.7-42.7 27.3-58.2 37.2-7.1 4.5-12.8 8.3-12.8 8.4 0 .1 4.4.2 9.8 0 5.3-.1 22.1-.5 37.2-.8 27.8-.6 65.7-1.5 94-2.1 8.5-.2 19.7-.4 24.8-.4l9.2-.1V75c0-29.7-.3-54-.7-54-.5 0-5.5 3.1-11.3 6.9zm-20.5 51.3c2.9 3.4 2.4 5.8-2.3 11.7-4.4 5.5-7.8 7.5-17.2 10.5-9.3 3-15.2 2.7-21.4-.9-2.4-1.4-5.8-3-7.6-3.5-2.7-.8-3.2-.6-3.9 1.3-.5 1.2-.6 4.1-.4 6.5.2 2.3-.1 5.1-.7 6.2-1 1.9-6.9 5-9.4 5-.8 0-1.1-3.6-1.1-11.6 0-12.7.1-12.9 6.8-14.2 7.3-1.4 15.1-.6 21.2 2.3 7.9 3.7 14.8 3.7 21 .1 8.2-4.9 6.6-10.3-2.7-9.1-3.7.5-4.8.3-4.8-.7 0-4.4 5.1-6.6 14.3-6.4 5.1.1 6.2.5 8.2 2.8zM264 75v54l14.3.1c7.8.1 18 .2 22.7.4 4.7.1 21.6.5 37.5.9 36.6.8 75.8 1.6 89.8 2 5.9.1 10.7.2 10.7 0s-13.7-9-43.5-28.1c-10.4-6.7-30.8-19.7-45.3-29-14.5-9.2-27.4-17.5-28.7-18.3-4.6-2.8-19-12.1-32-20.6-7.1-4.6-13.7-8.7-14.5-9.1-.8-.4-3.3-1.9-5.4-3.5-2.1-1.5-4.3-2.8-4.8-2.8-.4 0-.8 24.3-.8 54zm48.2 2.9c2.4 1.1 6.2 3.1 8.6 4.5 3.4 1.9 5 2.2 7.2 1.6 7.9-2.3 23 4.7 29 13.5 3.6 5.3 3.8 8.8.6 12-2 2-3.1 2.3-7.1 1.9-7.9-.6-16.2-5.7-12.7-7.7.4-.3 3-.8 5.7-1.2 2.8-.3 5.4-1 5.8-1.4 1.3-1.3-4.1-6.9-8.1-8.2-5.7-2-7.9-1.8-10.2.8-3 3.4-6.4 2.4-12-3.7-4.2-4.6-5.8-5.5-11-6.5-8-1.5-5.9 6.4 2.7 10 3.8 1.6 3.6 4.1-.3 5.1-4.9 1.2-15.4-7.4-17.3-14.4-1-3.6-.4-5 3.1-7.2 3.7-2.2 10.2-1.9 16 .9zM199.7 145.7c-.1.1-13.5.4-29.7.8-16.2.3-38.3.8-49 1-10.7.3-29.6.7-41.9 1-12.3.2-22.6.7-22.9.9-.2.3 1.9 6.7 4.7 14.3 2.9 7.6 5.4 14.5 5.6 15.3.2.8 1.5 4.4 2.8 8 3.9 10.3 54.8 148.1 56.1 151.8l1.2 3.3 14.4-24.7c8-13.6 15.8-27 17.3-29.8 1.6-2.8 3.5-6.1 4.3-7.3.7-1.2 2.2-3.7 3.3-5.5 1-1.8 11.9-20.4 24.1-41.3 12.3-20.9 24.6-41.8 27.2-46.5 2.7-4.7 9.4-16.1 14.8-25.3l9.9-16.8-21 .3c-11.6.2-21.1.4-21.2.5zm-41.1 35.4c7.2 4.4 9.7 13.7 5 18.4-3.2 3.2-5.3 2.4-7.3-2.6-1.7-4.3-5.5-7.9-8.5-7.9-2.4 0-10.8 8.4-10.8 10.8 0 1.4.7 1.7 3.8 1.4 2.9-.3 4.6.3 7.8 2.7 7.6 5.6 9.6 14.1 5.9 25.2-2.2 6.6-11.3 16.3-16.4 17.4-8.6 1.9-16.8-2.2-20.3-10.3-1.9-4.3-2.2-11.5-.7-15.7.4-1.1 1.7-5.2 2.9-9 4.1-13.1 10.6-23.1 18.3-28.3 8.1-5.5 13.8-6.1 20.3-2.1z"/><path d="M131.7 213c-4.7 3.7-6.1 17.8-2.1 21.1 2.2 1.8 8.2 1.4 10.5-.7 4.5-4.1 6.5-13.9 3.7-18.3a8.17 8.17 0 0 0-12.1-2.1zM274.6 152.7c2.5 4.3 6.9 11.8 9.8 16.6 2.8 4.9 5.8 10.1 6.7 11.5.9 1.5 3.2 5.4 5.1 8.7 4.3 7.4 24 41 37.8 64.5 5.6 9.6 10.8 18.4 11.4 19.5.6 1.1 9.8 17 20.5 35.2l19.5 33.3 3.9-10.8c2.2-5.9 8.1-22 13.2-35.7 5.1-13.8 14.3-38.7 20.5-55.5 6.1-16.8 13.8-37.5 17-46 10.7-28.5 16.2-44.1 15.8-44.6-.5-.4-13.6-.8-68.3-1.9-15.9-.3-36-.8-44.5-1-8.5-.2-28.5-.7-44.3-1l-28.8-.7 4.7 7.9zM388 173c12.7 6.7 23 25.3 23.1 42 .1 12.3-3.1 18.3-11.5 21.5-4.4 1.7-4.8 1.7-9.3 0-7-2.6-13.9-10.2-19.1-20.9-9.3-19.1-10.3-34.8-2.5-41.8 3.9-3.6 13.4-4 19.3-.8zm-36.5 34.5c4.8 11 10.7 24.2 13.2 29.4 6.3 13.7 6.3 13.4.8 15.5-2.5 1-4.8 1.6-5 1.4-.4-.3-3.2-6.3-13.4-28.3-7.1-15.2-6.2-14.3-10.8-12.1-5.6 2.7-7.1 2.7-8.8.3-2.3-3.3-1.8-5.1 2.5-9 2.4-2.1 4-4.5 4.1-5.9.3-7.5 1.5-10.5 4.7-11.6 1.5-.5 3-.7 3.3-.3.3.3 4.5 9.6 9.4 20.6z"/><path d="M376 182.9c-4.2 7.9 6 35.5 15.2 41.1 9.2 5.6 11.3-6.8 4-23.7-4.5-10.4-7.2-14.2-12.3-17.2-4.5-2.6-5.6-2.6-6.9-.2zM247 167.6c-4.7 8.1-9.8 17-11.5 19.9-1.6 2.8-12.7 21.7-24.5 41.8-25.3 43.2-23 39.2-25.8 44.2-1.2 2.2-3.2 5.5-4.3 7.4-11.9 20-40.9 70-40.9 70.7 0 .5 47.4.9 116.4.9 116.1 0 116.4 0 115.4-2-.6-1.1-6.5-11.2-13.1-22.5s-14.1-24.1-16.7-28.5c-2.5-4.4-16.5-28.3-31-53-14.4-24.8-27.2-46.6-28.4-48.7-11.7-20.3-26.2-44.8-26.6-44.8-.3 0-4.3 6.6-9 14.6zm-10.2 84.9c11.9 5.6 16.4 17.8 10.7 29.1-3.1 6.3-6 8.9-16.2 14.8-9.5 5.5-13.5 9.2-11.3 10.6 1.7 1.1 3.8 1.2 19.1 1.2l10.5-.1-.1 4.5c-.2 2.5-.8 5.1-1.4 5.7-.8.8-7.8 1-23.8.8-12.5-.1-23.1-.5-23.4-.7-1.1-.7 1.1-8.7 3.6-12.9 3.2-5.5 7.6-9.8 15.5-15.1 11-7.4 16-13.5 16-19.7 0-5.8-8.4-11-14.2-8.8-1.5.6-3.6 2.7-4.7 4.8-3.3 6.5-5.6 8.3-10.6 8.3-5.4 0-5.8-1.3-3.3-9.1 2.1-6.4 6.5-11.4 12.3-14 5.6-2.5 15.2-2.2 21.3.6zm57.9.6c6 2.9 10 8.1 12.7 16.9 5.8 18.1 1.2 38-10.7 46.7-13.7 10.1-31.4 1.4-36.3-17.9-5.3-20.7 3.1-43.4 17.6-47.6 4.8-1.4 11.5-.6 16.7 1.9z"/><path d="M279.7 264c-7.2 5.7-8.1 33.3-1.4 42.1 5.1 6.7 12.8 3 15.2-7.3 3.9-17.2-.5-36.8-8.4-36.8-1.5 0-4 .9-5.4 2zM52 216.6c0 30.6.2 32.4 3.8 32.4.8 0 2.1-.8 2.8-1.8 1-1.4 1.5-1.5 2.6-.4 1 1 1.3 8 1.3 31.7 0 16.8-.3 30.5-.8 30.5-.4 0-1.5-1.6-2.3-3.5-1-2.6-1.4-8.1-1.4-22.7 0-16.5-.2-19.7-1.7-21.7-.9-1.4-2.2-4.1-2.9-6-1.1-3-1.3 5.3-1.4 50.2v53.8l7.8-.6c4.2-.4 9.5-.8 11.7-1 2.2-.2 6.9-.6 10.5-1 10.5-1.1 13-1.3 22-2 4.7-.4 8.8-.9 9.1-1.1.4-.2-4.5-14.2-10.8-31.1-26.8-72.4-29.2-79-39.8-107.8-1.8-5-4.9-13.3-6.8-18.5l-3.6-9.5-.1 30.1zm27.4 54.7c4.2 5.5 9 21.7 6.8 23.1-1 .6-3.2-3.4-5.8-10.8l-1.8-4.9-1.8 2.3c-1.8 2.2-2.6 10.1-1 9.9.4-.1 1.2-.1 1.8 0 1.6.2 7.1 12.5 8.8 19.8 2.2 9.5 1.1 23.5-1.9 24.7-2 .7-7.4-4.9-9.5-10-5.7-13.3-7.1-38.1-2.9-53.7 1.3-4.8 3.9-4.9 7.3-.4z"/><path d="M75.5 301c-1.3 2.2-1.3 9.5.2 14.4 1.5 5.3 4.7 9.6 6 8.2 1.4-1.3.5-15.3-1.1-18.4-2-3.8-4.2-5.6-5.1-4.2zM456.3 195.7c-1.7 4.9-7 19.4-11.8 32.3-4.8 12.9-10.3 27.8-12.2 33-1.9 5.2-5.1 13.8-7 19-2 5.2-4.2 11.1-4.9 13-.7 1.9-5.8 15.9-11.4 31-5.6 15.1-10.2 27.9-10.3 28.5-.1.5.7 1 1.8 1.1 3.4.4 13.3 1.4 18.8 1.9 9.6.8 17.2 1.5 21.2 2 2.2.2 7.5.7 11.8 1.1l7.7.6v-86.1c0-47.4-.1-86.1-.3-86.1-.1 0-1.7 3.9-3.4 8.7zm1.1 52.5c1.9 4.5 1.3 32.4-.9 43.6-1.9 10-7.6 20.7-11 20.7-3.9 0-4.5-7.5-1.1-12 1.3-1.6 1.7-1.7 2.5-.6 1.8 2.7 6.6-7.2 7.6-15.4.3-3.3-1.2-5.6-2-3-2.3 7.3-6.4 11.6-9 9.5-2.8-2.3-3.5-15.4-1.5-24.6 1.3-5.7 4.5-14.2 7-18.2 1.4-2.3 2.7-3.2 4.5-3.2 2 0 2.9.8 3.9 3.2zM434 297.7c0 30.5 0 30.8-2.3 33.6l-2.2 2.9v-20.6l.1-20.6-2.4 2.5c-4.9 5.3-6.2 2.2-2.4-5.8 1.7-3.4 3.5-8.2 4.2-10.7 1.1-4.5 4.1-12 4.7-12 .2 0 .3 13.8.3 30.7z"/><path d="M448.5 259.2c-3 7.2-3.1 20.4-.2 19.2 2.1-.8 3.7-4.2 5.1-10.8 1.1-5.3 1.1-6.7-.1-9-1.8-3.5-3.1-3.3-4.8.6zM144.5 369c-.4.6.9 2.1 16.4 18.9 5.3 5.8 11.9 13 14.6 16 2.8 3 7.7 8.3 10.9 11.8s6.7 7.3 7.7 8.4c1 1.2 5.8 6.5 10.6 11.7 4.9 5.3 9.9 10.7 11.1 12.1 1.3 1.4 4.2 4.6 6.5 7.1s9.1 9.9 15.1 16.5c6.1 6.6 12.7 13.8 14.8 16l3.9 4 5.2-5.6c2.9-3.1 9.3-10 14.2-15.4 11.3-12.3 12-13.2 21.5-23.5 4.3-4.7 8.8-9.6 9.9-10.9 1.2-1.3 6.7-7.4 12.4-13.5 5.6-6.1 12.2-13.3 14.7-16 2.5-2.8 5.4-6 6.5-7.1 2.9-3.1 18.6-20.3 23-25.2 2-2.3 3.6-4.5 3.6-5-.1-.9-222.1-1.2-222.6-.3zm90.8 16.9c.4.1.7 9.7.7 21.5v21.4l-6.5.4c-5.2.2-6.5 0-6.6-1.2-.1-.8-.2-7.6-.3-15l-.1-13.5-7.3-.1c-7.9-.1-10.4-1.3-8.6-4.2.7-1.1 3-1.9 6.8-2.3 4.3-.5 6.2-1.3 8-3.2 1.3-1.5 3.7-2.9 5.3-3.2 1.5-.4 3.3-.8 3.8-.9.6-.2 1.7-.2 2.5 0 .8.1 1.8.3 2.3.3zm49.5 1l17.2.1v2.9c0 4.8-1.6 5.3-16 4.9-12.1-.3-13.3-.1-14.6 1.7-.8 1-1.4 2.7-1.4 3.8 0 1.6.5 1.7 3.3 1.1 10.2-2.5 24.4 1.4 29.1 7.9 2.9 4 2.7 9.9-.4 13.2-6.5 7-22.4 10.4-34.3 7.5-5.8-1.5-11.7-6.3-11.7-9.6 0-2.4.5-2.6 6-2.6 4.2 0 5 .3 7.5 2.8 3 3 8 3.8 14.2 2.2 4.9-1.2 6.3-2.6 6.8-6.4.4-3.6-3.1-7.1-8-8-2.3-.4-6.7 0-11.6 1.1-12.3 2.6-14.6.9-12.3-9 .8-3.3 1.6-7.2 1.9-8.7.6-3.4 3-5.7 5.2-5.3 1 .2 9.6.4 19.1.4zM113.8 369.6c-.2.1-3.7.5-7.8.8-18 1.4-20.9 1.7-28 2.6-4.1.5-7.8.6-8.2.4-.4-.3-.8-.1-.8.5s1 1.6 2.3 2.2c1.8 1 21 13.2 50.7 32.4 3.6 2.3 7.1 4.5 7.8 4.9.8.5-1.5-2.9-4.9-7.4-6.5-8.5-11.2-12.9-16.4-15.5-4.3-2.1-7-4.4-6.2-5.2.4-.3 1.8-.1 3.2.5 1.9.9 2.6.8 3.2-.3.7-1.2 1.3-1.2 4 .2 3.5 1.6 6.3 4.9 22.8 26.1 6.6 8.4 9.4 11.2 16 15.4 4.4 2.8 11.6 7.5 16 10.3 4.4 2.8 12.5 8 18 11.5 5.5 3.4 12.6 8 15.8 10.1 3.1 2.2 5.7 3.5 5.7 3s-.3-1.1-.7-1.3c-.5-.2-5.1-5-10.3-10.8-8.6-9.5-12.4-13.7-20-21.9-1.4-1.5-4.5-5-7-7.7-5.3-5.8-15.4-16.7-22.4-24.4-2.8-3-9.5-10.3-14.9-16.2-9.5-10.4-10-10.8-13.8-10.6-2.1.1-4 .2-4.1.4zm57.9 55.9c7.9 9.4 13.9 17.1 13.4 17.3-2.7.9-10.9-6.3-18.6-16.3-6.7-8.8-10.9-12.6-16.7-15.6-3.1-1.6-5.9-3.3-6.3-3.9-.8-1.3 2.1-1.3 4.6 0 1.5.9 2.1.7 2.5-.5 1.2-3.1 6.7 1.9 21.1 19zM385 374.7c-3.1 3.2-10 10.7-15.5 16.8-5.5 6-12.3 13.5-15.2 16.5-2.8 3-5 5.7-4.7 5.9.2.2 4-2.4 8.4-5.8 7.8-6 11-8 11-6.6 0 .3-5.6 7.4-12.6 15.7-11.8 14.2-19.3 21.8-21.6 21.8-.5 0 2.6-4.6 6.9-10.3 10.2-13.1 10.1-13 5.3-10.5-3.6 2-9.8 8.2-24.2 24.3-2.4 2.7-5.8 6.4-7.7 8.4-1.8 2-5.2 5.6-7.5 8l-4.1 4.4 4-2.3c2.2-1.3 7.8-4.8 12.5-7.8 12.6-8.2 19.7-12.7 39.2-25.1 9.7-6.2 18.4-12.1 19.3-13.1 3.7-4.1.6-3.7-7.7 1-4.9 2.7-8.8 4.5-8.8 4.1 0-1.2 10.5-11 20.5-19 5-4.1 11.2-9.2 13.9-11.5 4.6-3.8 14.6-10 15.2-9.3.2.2-3.1 4.5-7.2 9.6-5.9 7.3-7.1 9.1-5.2 8.6 1.9-.5 1.7-.1-1.4 2.7-2 1.8-4.7 4.1-6 5.1l-2.3 1.9 2.5-1.4c2.5-1.4 15.5-9.6 37.5-23.6 6.6-4.2 12.3-8.1 12.5-8.6.3-.5-.6-1-2-1.1-1.4-.2-5.9-.6-10-.9-4.1-.4-9.3-.9-11.5-1.1-2.2-.2-6.7-.6-10-.9-3.3-.3-8.7-.8-12-1.1l-6-.6-5.5 5.8z"/><path d="M385.7 401.7c-5.8 4.9-10.4 8.9-10.2 9.1.8.8 14.2-9.4 17.9-13.5 2.1-2.4 3.6-4.3 3.3-4.3-.2 0-5.2 3.9-11 8.7z"/></svg>